<?xml version="1.0" encoding="UTF-8" standalone="no"?>
<!-- Created with Inkscape (http://www.inkscape.org/) -->

<svg
   width="80.962997mm"
   height="86.344002mm"
   viewBox="0 0 80.962997 86.344002"
   version="1.1"
   id="svg1"
   inkscape:version="1.4.2 (ebf0e940d0, 2025-05-08)"
   sodipodi:docname="edge.svg"
   xml:space="preserve"
   xmlns:inkscape="http://www.inkscape.org/namespaces/inkscape"
   xmlns:sodipodi="http://sodipodi.sourceforge.net/DTD/sodipodi-0.dtd"
   xmlns="http://www.w3.org/2000/svg"
   xmlns:svg="http://www.w3.org/2000/svg"><sodipodi:namedview
     id="namedview1"
     pagecolor="#ffffff"
     bordercolor="#000000"
     borderopacity="0.25"
     inkscape:showpageshadow="2"
     inkscape:pageopacity="0.0"
     inkscape:pagecheckerboard="0"
     inkscape:deskcolor="#d1d1d1"
     inkscape:document-units="mm"
     inkscape:zoom="1.4142136"
     inkscape:cx="69.296464"
     inkscape:cy="172.1805"
     inkscape:window-width="1440"
     inkscape:window-height="891"
     inkscape:window-x="0"
     inkscape:window-y="0"
     inkscape:window-maximized="1"
     inkscape:current-layer="layer1"
     showguides="true"><sodipodi:guide
       position="0,51.276"
       orientation="0,1"
       id="guide1"
       inkscape:locked="false"
       inkscape:label=""
       inkscape:color="rgb(0,134,229)" /><sodipodi:guide
       position="19.049999,13.176002"
       orientation="-1,0"
       id="guide2"
       inkscape:locked="false"
       inkscape:label=""
       inkscape:color="rgb(0,134,229)" /></sodipodi:namedview><defs
     id="defs1" /><g
     inkscape:label="Layer 1"
     inkscape:groupmode="layer"
     id="layer1"><path
       d="M 0,73.168 H 80.963 V 16.018 H 0 Z M 22.074999,18.543 H 35.075 a 0.5,0.5 0 0 1 0.5,0.5 v 13 a 0.5,0.5 0 0 1 -0.5,0.5 H 22.074999 a 0.5,0.5 0 0 1 -0.5,-0.5 v -13 a 0.5,0.5 0 0 1 0.5,-0.5 z m -9.525,19.05 H 25.55 a 0.5,0.5 0 0 1 0.5,0.5 v 13 a 0.5,0.5 0 0 1 -0.5,0.5 H 12.549999 a 0.5,0.5 0 0 1 -0.5,-0.5 v -13 a 0.5,0.5 0 0 1 0.5,-0.5 z m 19.050001,0 h 13 a 0.5,0.5 0 0 1 0.5,0.5 v 13 a 0.5,0.5 0 0 1 -0.5,0.5 h -13 a 0.5,0.5 0 0 1 -0.5,-0.5 v -13 a 0.5,0.5 0 0 1 0.5,-0.5 z m 33.338,0 h 13 a 0.5,0.5 0 0 1 0.5,0.5 v 13 a 0.5,0.5 0 0 1 -0.5,0.5 h -13 a 0.5,0.5 0 0 1 -0.5,-0.5 v -13 a 0.5,0.5 0 0 1 0.5,-0.5 z M 22.074999,56.643 H 35.075 a 0.5,0.5 0 0 1 0.5,0.5 v 13 a 0.5,0.5 0 0 1 -0.5,0.5 H 22.074999 a 0.5,0.5 0 0 1 -0.5,-0.5 v -13 a 0.5,0.5 0 0 1 0.5,-0.5 z m 19.050001,0 h 13 a 0.5,0.5 0 0 1 0.5,0.5 v 13 a 0.5,0.5 0 0 1 -0.5,0.5 h -13 a 0.5,0.5 0 0 1 -0.5,-0.5 v -13 a 0.5,0.5 0 0 1 0.5,-0.5 z m 23.813,0 h 13 a 0.5,0.5 0 0 1 0.5,0.5 v 13 a 0.5,0.5 0 0 1 -0.5,0.5 h -13 a 0.5,0.5 0 0 1 -0.5,-0.5 v -13 a 0.5,0.5 0 0 1 0.5,-0.5 z M 3.0249997,18.543 H 16.024999 a 0.5,0.5 0 0 1 0.5,0.5 v 13 a 0.5,0.5 0 0 1 -0.5,0.5 H 3.0249997 A 0.5,0.5 0 0 1 2.525,32.043 v -13 a 0.5,0.5 0 0 1 0.4999997,-0.5 z m 61.9130003,0 h 13 a 0.5,0.5 0 0 1 0.5,0.5 v 13 a 0.5,0.5 0 0 1 -0.5,0.5 h -13 a 0.5,0.5 0 0 1 -0.5,-0.5 v -13 a 0.5,0.5 0 0 1 0.5,-0.5 z"
       vector-effect="non-scaling-stroke"
       id="path1"
       style="font-size:12px;display:none;vector-effect:non-scaling-stroke;fill:none;fill-rule:evenodd;stroke:#000000;stroke-width:0.264583;stroke-linecap:round;stroke-dasharray:none;-inkscape-stroke:hairline" /><path
       style="vector-effect:non-scaling-stroke;fill:none;stroke:#000000;stroke-width:0.356083;stroke-linejoin:round;stroke-dasharray:none;-inkscape-stroke:hairline;fill-opacity:1"
       d="M 25.638001,86.344002 0,35.067999 V 0 h 80.962997 v 86.344002 z"
       id="path2" /></g></svg>
